#!OML:ASF F:\VICON\USERDATA\INSTALL\rory3\rory3.ASF
:FULLY-SPECIFIED
:DEGREES
1005
root 8.85644 16.8523 28.0161 -327.985 27.4435 362.713
lowerback -21.8928 -5.49406 0.7246
upperback -15.8285 -6.95067 1.59656
thorax -5.14799 -3.3873 0.141786
lowerneck -15.1715 0.283516 -2.15428
upperneck 38.3 -0.197285 3.87664
head 16.2368 0.228961 2.07333
rclavicle -3.38928e-014 6.55989e-015
rhumerus -26.0691 -74.3686 22.3471
rradius 15.2389
rwrist 40.5449
rhand 2.38102 2.13449
rfingers 7.12502
rthumb 27.8689 -25.8182
lclavicle -3.38928e-014 6.55989e-015
lhumerus 63.4602 0.8778 22.1789
lradius 29.8881
lwrist -14.7426
lhand 7.27818 22.9522
lfingers 7.12502
lthumb 32.5404 50.0483
rfemur -56.8402 6.34331 23.1178
rtibia 38.0459
rfoot -50.012 -42.1862
rtoes 43.5178
lfemur -10.4203 -3.76526 -22.8309
ltibia 28.1018
lfoot 5.22545 45.324
ltoes 22.5313
1006
root 8.8448 16.8424 28.0243 -327.698 26.9788 363.002
lowerback -21.9861 -5.52297 0.16282
upperback -15.9693 -6.89353 1.56276
thorax -5.20265 -3.31211 0.421978
lowerneck -15.044 0.260119 -2.12681
upperneck 38.4276 -0.232014 3.84168
head 16.2735 0.212958 2.04984
rclavicle -3.46879e-014 -2.68359e-014
rhumerus -25.532 -73.4257 21.7829
rradius 15.2671
rwrist 40.0635
rhand 2.4063 2.33968
rfingers 7.12502
rthumb 27.8931 -25.6091
lclavicle -3.46879e-014 -2.68359e-014
lhumerus 63.5877 0.799733 22.2714
lradius 29.6675
lwrist -14.694
lhand 7.33696 22.7548
lfingers 7.12502
lthumb 32.5964 49.8393
rfemur -57.1383 6.76945 22.5404
rtibia 38.024
rfoot -49.7169 -42.7934
rtoes 43.0814
lfemur -10.5551 -3.73117 -23.2678
ltibia 28.1067
lfoot 4.35319 45.192
ltoes 23.4218
1007
root 8.85061 16.8404 28.0204 -327.683 26.9266 363.079
lowerback -21.7131 -5.50673 0.182591
upperback -16.0883 -6.87756 1.56269
thorax -5.47679 -3.30502 0.447279
lowerneck -15.1052 0.234748 -2.15417
upperneck 38.5426 -0.236604 3.77564
head 16.3492 0.197373 2.02958
rclavicle -3.89121e-014 -3.35946e-014
rhumerus -30.7841 -76.7378 27.3728
rradius 15.1292
rwrist 44.1535
rhand 2.75111 3.02864
rfingers 7.12502
rthumb 28.2227 -24.8661
lclavicle -3.89121e-014 -3.35946e-014
lhumerus 63.5587 0.703441 21.9937
lradius 29.6543
lwrist -14.1936
lhand 6.69946 23.1772
lfingers 7.12502
lthumb 31.9896 50.3853
rfemur -57.1729 6.89296 22.3268
rtibia 38.1018
rfoot -50.0385 -42.8347
rtoes 43.1833
lfemur -10.4266 -3.86878 -23.409
ltibia 27.9938
lfoot 4.50635 45.0254
ltoes 22.9604
1008
root 8.84653 16.8311 28.0263 -327.544 26.5028 363.31
lowerback -21.7257 -5.48492 -0.244322
upperback -16.1049 -6.78325 1.52956
thorax -5.44446 -3.22274 0.659408
lowerneck -15.2022 0.22111 -2.16247
upperneck 38.5958 -0.234263 3.72669
head 16.4013 0.190332 2.01291
rclavicle 6.62947e-014 1.66979e-014
rhumerus -47.1917 -81.5698 44.1974
rradius 14.9626
rwrist 49.6904
rhand 2.86202 3.6129
rfingers 7.12502
rthumb 28.3287 -24.2643
lclavicle 6.62947e-014 1.66979e-014
lhumerus 63.6179 0.717417 21.675
lradius 29.6977
lwrist -13.7176
lhand 6.56787 23.4119
lfingers 7.12502
lthumb 31.8643 50.6449
rfemur -57.3775 7.28322 21.8145
rtibia 38.2735
rfoot -50.9169 -42.4176
rtoes 43.84
lfemur -10.2994 -3.81135 -23.8202
ltibia 27.7608
lfoot 1.1854 45.4088
ltoes 26.5429
1009
root 8.86659 16.838 28.0173 -327.525 26.6387 363.473
lowerback -21.5444 -5.48502 -0.0213705
upperback -16.2031 -6.82007 1.468
thorax -5.6823 -3.26332 0.490392
lowerneck -15.0611 0.259705 -2.18899
upperneck 38.6318 -0.152468 3.68981
head 16.381 0.214885 2.01545
rclavicle 5.95857e-014 2.36554e-014
rhumerus -56.5017 -82.929 53.6301
rradius 14.9528
rwrist 51.4426
rhand 2.81869 3.57853
rfingers 7.12502
rthumb 28.2873 -24.3056
lclavicle 5.95857e-014 2.36554e-014
lhumerus 63.4606 0.734536 21.511
lradius 29.7105
lwrist -13.481
lhand 7.45126 23.1264
lfingers 7.12502
lthumb 32.7051 50.1884
rfemur -57.2464 5.56782 22.7365
rtibia 38.4202
rfoot -49.6908 -40.9254
rtoes 44.0378
lfemur -10.1311 -3.79436 -23.9667
ltibia 27.6171
lfoot 0.623588 45.4895
ltoes 27.5445
1010
root 8.8565 16.8278 28.0243 -327.177 26.2044 363.822
lowerback -21.6649 -5.57335 -0.614105
upperback -16.3545 -6.83768 1.48231
thorax -5.72987 -3.21814 0.824511
lowerneck -14.9732 0.277095 -2.25398
upperneck 38.7281 -0.0977842 3.66867
head 16.407 0.224208 2.02967
rclavicle 3.82164e-014 9.34288e-015
rhumerus -40.5964 -80.456 37.4992
rradius 15.1058
rwrist 48.4627
rhand 2.62085 3.01818
rfingers 7.12502
rthumb 28.0982 -24.8971
lclavicle 3.82164e-014 9.34288e-015
lhumerus 63.2889 0.751338 21.4674
lradius 29.7137
lwrist -13.319
lhand 7.92821 23.2678
lfingers 7.12502
lthumb 33.1588 50.2344
rfemur -57.6509 6.57084 21.6537
rtibia 38.5071
rfoot -50.6681 -41.5859
rtoes 44.1608
lfemur -10.316 -3.67724 -24.4424
ltibia 27.5484
lfoot 2.64162 45.3395
ltoes 25.2918
1011
root 8.86068 16.8291 28.0186 -327.318 26.3474 363.64
lowerback -21.4662 -5.58406 -0.323546
upperback -16.4644 -6.8983 1.56308
thorax -5.97845 -3.2682 0.768992
lowerneck -14.7745 0.300587 -2.28816
upperneck 38.7953 -0.0698593 3.70519
head 16.3913 0.234972 2.0567
rclavicle 2.04251e-014 2.62396e-014
rhumerus -24.6784 -72.5588 21.0353
rradius 15.4298
rwrist 40.4367
rhand 2.46424 2.22281
rfingers 7.12502
rthumb 27.9485 -25.7169
lclavicle 2.04251e-014 2.62396e-014
lhumerus 63.0657 0.674982 21.2524
lradius 29.7815
lwrist -13.1344
lhand 7.58477 23.7271
lfingers 7.12502
lthumb 32.8321 50.7626
rfemur -57.5216 6.17668 22.16
rtibia 38.5391
rfoot -50.4211 -41.2076
rtoes 44.2668
lfemur -10.2794 -3.71969 -24.2246
ltibia 27.5295
lfoot 6.63059 44.929
ltoes 20.1936
1012
root 8.86396 16.8306 28.0198 -327.524 26.446 363.454
lowerback -21.5558 -5.62934 -0.198571
upperback -16.3035 -6.97812 1.68908
thorax -5.74225 -3.3159 0.802165
lowerneck -14.7483 0.317011 -2.27624
upperneck 38.6763 -0.0360197 3.66802
head 16.3204 0.245049 2.03922
rclavicle 7.80727e-014 3.95581e-014
rhumerus -19.4503 -65.1 15.2367
rradius 15.8452
rwrist 32.6398
rhand 2.32903 1.39743
rfingers 7.12502
rthumb 27.8192 -26.5633
lclavicle 7.80727e-014 3.95581e-014
lhumerus 62.9747 0.877084 20.7931
lradius 29.8016
lwrist -12.7832
lhand 7.39273 23.7442
lfingers 7.12502
lthumb 32.6494 50.8177
rfemur -57.3166 5.89267 22.6127
rtibia 38.5213
rfoot -50.0992 -41.0809
rtoes 44.2034
lfemur -10.2268 -3.51365 -24.005
ltibia 27.5757
lfoot 10.1305 44.3953
ltoes 15.7006
1013
root 8.86377 16.8255 28.032 -327.525 26.2918 363.512
lowerback -22.037 -5.68892 -0.472621
upperback -15.9183 -7.01288 1.77837
thorax -5.01257 -3.31292 0.966891
lowerneck -15.2129 0.309043 -2.33813
upperneck 38.5322 0.000520155 3.61337
head 16.3586 0.243584 2.03321
rclavicle -1.97294e-014 0
rhumerus -19.5245 -65.2981 15.3373
rradius 15.8295
rwrist 32.0743
rhand 2.59363 1.74012
rfingers 7.12502
rthumb 28.0722 -26.1794
lclavicle -1.97294e-014 0
lhumerus 63.2006 1.55481 20.9212
lradius 29.6085
lwrist -13.0733
lhand 7.47764 23.359
lfingers 7.12502
lthumb 32.7302 50.4158
rfemur -57.266 6.26167 22.3247
rtibia 38.4927
rfoot -50.5338 -41.1629
rtoes 44.4406
lfemur -10.2483 -3.29213 -24.103
ltibia 27.6587
lfoot 11.4019 44.1399
ltoes 14.2001
